<svg xmlns="http://www.w3.org/2000/svg" viewBox="0 0 45.6 17.96"><defs><style>.cls-1{fill:#fcbb76;}.cls-2{fill:#fee5da;}</style></defs><title>Asset 1</title><g id="Layer_2" data-name="Layer 2"><g id="Layer_1-2" data-name="Layer 1"><path class="cls-1" d="M44.64,15.27H39.51V16.5a3,3,0,0,1,0,.52h5.18a.88.88,0,1,0,0-1.75Z"/><path class="cls-1" d="M34.52,16.5V15.27H.89A.88.88,0,0,0,.89,17H34.57A3,3,0,0,1,34.52,16.5Z"/><path class="cls-2" d="M41,3.2a3,3,0,0,0-2.56,1.15,1.57,1.57,0,0,0-1.4-1,1.44,1.44,0,0,0-1.29.75,1.44,1.44,0,0,0-1.29-.75A1.48,1.48,0,0,0,33,4.94V9.6a1.65,1.65,0,0,1-3.3,0V4.94a1.48,1.48,0,0,0-1.49-1.55,1.44,1.44,0,0,0-1.31.8,1.45,1.45,0,0,0-1.42-.68H24.6v-2a1.5,1.5,0,1,0-3,0v2h-.34a1.41,1.41,0,0,0-1.47.79,1.44,1.44,0,0,0-1.37-.91,1.54,1.54,0,0,0-1.39,1A3,3,0,0,0,14.47,3.2,4.77,4.77,0,0,0,10,7.34a4.9,4.9,0,0,0-3.53-4c-.35.6-1.29,1.9-2.7,1.25,0,0-.39,2.63-2.66,2A2.53,2.53,0,0,1,0,8.58v0A5.11,5.11,0,0,0,5.23,14c2.26,0,4.7-1,4.7-2.42a1.24,1.24,0,0,0-1.25-1.28c-.69,0-1.59.94-3.06.94-1.92,0-2.4-1-2.4-1.67h5.4c.62,0,1.05-.11,1.27-.47C10.12,11.89,12,14,14.47,14A3,3,0,0,0,17,12.86a1.54,1.54,0,0,0,1.39,1,1.49,1.49,0,0,0,1.5-1.55V5.72a1.55,1.55,0,0,0,1.34.55h.34v6a1.5,1.5,0,1,0,3,0v-6h.83a1.62,1.62,0,0,0,1.23-.43V10c0,2.76,2.15,4,4.64,4a4.47,4.47,0,0,0,4.22-2.13v4.53a1.5,1.5,0,1,0,3,0V13.17A3.5,3.5,0,0,0,41,14c2.61,0,4.62-2.4,4.62-5.4S43.59,3.2,41,3.2ZM3.22,7.55a2,2,0,0,1,1.94-1.8,2,2,0,0,1,1.93,1.8Zm11.67,3.58c-1.32,0-2.05-1.14-2.05-2.52s.73-2.53,2.05-2.53,2.05,1.15,2.05,2.53S16.21,11.13,14.89,11.13Zm25.67,0c-1.32,0-2.05-1.14-2.05-2.52s.73-2.53,2.05-2.53,2,1.15,2,2.53S41.88,11.13,40.56,11.13Z"/></g></g></svg>